<?xml version="1.0" encoding="UTF-8"?>
<!DOCTYPE svg PUBLIC "-//W3C//DTD SVG 1.0//EN" "http://www.w3.org/TR/2001/REC-SVG-20010904/DTD/svg10.dtd">
<!-- Creator: CorelDRAW X7 -->
<svg xmlns="http://www.w3.org/2000/svg" xml:space="preserve" width="29.7445in" height="4.06554in" version="1.0" style="shape-rendering:geometricPrecision; text-rendering:geometricPrecision; image-rendering:optimizeQuality; fill-rule:evenodd; clip-rule:evenodd"
viewBox="0 0 7093 969"
 xmlns:xlink="http://www.w3.org/1999/xlink">
 <defs>
  <style type="text/css">
   <![CDATA[
    .fil0 {fill:#FEFEFE;fill-opacity:0.458824}
    .fil1 {fill:#FEFEFE}
   ]]>
  </style>
 </defs>
 <g id="Layer_x0020_1">
  <metadata id="CorelCorpID_0Corel-Layer"/>
  <g id="_2014317862144">
   <path class="fil0" d="M1317 648c0,0 602,54 1227,-192 971,-419 1738,447 2428,12 690,-434 844,-503 1352,-454 509,49 584,138 769,182l0 707 -5776 8 0 -263z"/>
   <path class="fil1" d="M0 659c0,0 602,54 1227,-192 971,-419 1629,513 2319,79 690,-435 1256,-576 1775,-472 518,104 1203,465 1772,133l0 754 -7093 8 0 -310z"/>
  </g>
 </g>
</svg>
